<svg width="668" height="720" viewBox="0 0 668 720" fill="none" xmlns="http://www.w3.org/2000/svg">
<g clip-path="url(#clip0_79631_12)">
<mask id="mask0_79631_12" style="mask-type:luminance" maskUnits="userSpaceOnUse" x="0" y="0" width="668" height="720">
<path d="M668 0H0V720H668V0Z" fill="white"/>
</mask>
<g mask="url(#mask0_79631_12)">
<path fill-rule="evenodd" clip-rule="evenodd" d="M334.682 641.695C243.991 642.844 142.904 623.492 93.968 547.199C46.554 473.279 87.2757 381.299 114.021 297.677C139.304 218.626 163.935 133.327 238.219 96.1803C317.884 56.343 414.542 64.6213 491.953 108.687C568.144 152.057 617.055 231.267 628.178 318.159C638.751 400.763 603.322 479.751 547.348 541.454C491.971 602.499 417.145 640.65 334.682 641.695Z" fill="#9BDBFF"/>
<mask id="mask1_79631_12" style="mask-type:luminance" maskUnits="userSpaceOnUse" x="60" y="17" width="609" height="703">
<path d="M669 17H60V720H669V17Z" fill="white"/>
</mask>
<g mask="url(#mask1_79631_12)">
<path d="M432.677 469.008C475.944 464.061 546.917 477.541 486.162 562.921C425.855 647.673 414.179 700.963 446.557 690.478C446.79 690.391 447.033 690.31 447.284 690.234C447.039 690.319 446.797 690.4 446.557 690.478C437.557 693.841 441.673 705.978 437.023 710.9C400.984 716.63 400.313 668.192 480.806 561.929C500.178 533.677 513.117 478.665 436.742 481.628L432.677 469.008Z" fill="#FFD500"/>
<path d="M427.839 452.945C476.727 441.778 530.059 437.389 475.722 538.571C421.942 638.716 478.99 631.224 515.256 614.581C515.599 614.403 515.972 614.23 516.376 614.061C516.005 614.235 515.631 614.409 515.256 614.581C506.326 619.194 517.142 626.522 512.744 632.437C472.315 643.493 407.042 640.124 469.377 538.205C486.516 504.821 519.059 451.05 431.707 464.474L427.839 452.945Z" fill="#005BBB"/>
<path d="M185.47 198.55C192.656 197.842 197.578 188.114 196.465 176.822C195.351 165.53 188.624 156.951 181.438 157.66C174.252 158.368 169.33 168.096 170.443 179.388C171.557 190.68 178.284 199.259 185.47 198.55Z" fill="#0D070C"/>
<path d="M324.678 157.549C318.1 160.528 308.973 154.564 304.292 144.229C299.61 133.893 301.147 123.1 307.724 120.12C314.301 117.141 323.428 123.105 328.11 133.44C332.791 143.776 331.255 154.57 324.678 157.549Z" fill="#0D070C"/>
<path fill-rule="evenodd" clip-rule="evenodd" d="M231.969 88.3394C207.094 95.327 161.951 119.282 180.382 159.202C192.737 185.963 186.278 198.024 179.296 211.061C173.258 222.333 166.83 234.336 171.837 257.204C176.384 277.974 185.842 290.826 195.282 303.653C208.253 321.28 221.191 338.861 221.306 376.881C221.466 429.431 260.094 568.545 279.389 631.534L370.944 607.001L231.969 88.3394ZM232.211 89.2415C257.247 82.8552 308.32 81.0296 312.319 124.817C314.986 154.024 330.398 162.473 346.52 171.311C360.609 179.034 375.241 187.055 382.379 209.49C389.058 230.479 384.324 245.967 379.579 261.493C373.449 281.551 367.299 301.671 385.716 333.794C411.853 379.384 447.957 519.175 462.741 583.371L371.186 607.903L232.211 89.2415Z" fill="white"/>
<path d="M234.06 305.943C220.768 317.248 197.083 311.235 181.158 292.511C165.234 273.788 163.101 249.444 176.394 238.139C189.686 226.834 213.371 232.847 229.295 251.571C245.22 270.294 247.353 294.638 234.06 305.943Z" fill="url(#paint0_radial_79631_12)"/>
<path d="M339.442 277.18C322.823 271.86 315.425 248.57 322.918 225.161C330.411 201.751 349.959 187.087 366.578 192.407C383.197 197.726 390.596 221.016 383.102 244.425C375.609 267.835 356.062 282.499 339.442 277.18Z" fill="url(#paint1_radial_79631_12)"/>
<path d="M435.705 476.832C377.172 523.231 287.572 536.157 250.692 530.628L256.95 552.252C341.794 570.362 414.963 523.429 441.884 498.278L435.705 476.832Z" fill="#005BBB"/>
<path d="M441.884 497.551C372.714 556.319 293.684 557.043 256.697 551.943L261.96 568.794C347.154 585.914 421.646 547.002 448.063 521.541L441.884 497.551Z" fill="#FFD500"/>
<path opacity="0.5" d="M312.23 141.548C315.427 142.057 318.667 138.398 319.467 133.375C320.267 128.352 318.324 123.867 315.128 123.358C311.931 122.849 308.691 126.508 307.891 131.531C307.091 136.554 309.034 141.039 312.23 141.548Z" fill="white"/>
<path opacity="0.5" d="M179.194 179.35C182.391 179.859 185.631 176.2 186.431 171.177C187.231 166.154 185.288 161.669 182.092 161.16C178.895 160.651 175.655 164.31 174.855 169.333C174.055 174.356 175.998 178.841 179.194 179.35Z" fill="white"/>
<path d="M354.873 567.081C194.646 598.273 229 815.428 266.205 920.107C453.599 981.407 803.303 1043.82 702.971 803.076C602.64 562.331 470.765 534.272 417.369 550.335L354.873 567.081Z" fill="white"/>
<path d="M208.679 205.277C188.97 143.269 246.386 116.651 246.339 117.495C311.241 117.495 320.296 173.069 320.296 181.653C320.296 205.277 362.24 214.921 357.422 240.83C352.604 266.739 365.571 314.539 365.493 350.331C365.446 372.265 359.096 381.97 353.703 385.453C355.285 385.044 354.647 385.302 353.089 385.825C351.67 386.631 350.34 387.009 349.236 387.074C350.67 386.619 352.075 386.166 353.089 385.825C353.292 385.71 353.497 385.586 353.703 385.453C351.623 385.99 345.707 387.677 332.999 391.425C297.16 401.995 282.216 355.243 236.594 309.46C190.973 263.677 233.314 282.786 208.679 205.277Z" fill="#FF6B0A"/>
<path d="M326.836 368.423C297.295 373.632 270.805 312.056 261.253 280.617C277.946 271.955 314.936 256.178 329.356 262.369C347.381 270.107 363.763 361.913 326.836 368.423Z" fill="#1F0C02"/>
<path d="M330.524 358.734C350.053 350.795 331.827 308.273 320.273 288.005L281.035 298.519C289.395 321.899 310.995 366.674 330.524 358.734Z" fill="#724B3B"/>
<path d="M324.046 343.505C327.418 339.405 309.597 297.271 300.265 276.717L291.891 279.948C301.205 302.842 320.674 347.604 324.046 343.505Z" fill="#6B3B28"/>
<path d="M243.001 259.404C251.367 212.691 233.838 192.735 224.028 188.596C243.605 140.425 284.803 154.426 302.955 167.447C290.83 214.201 299.267 177.136 330.949 235.839C356.294 282.801 327.757 308.719 310.321 315.808C284.396 316.471 234.636 306.118 243.001 259.404Z" fill="#ED5E00"/>
<path d="M339.021 256.111C276.016 205.705 254.23 260.784 251.212 294.624C258.806 306.124 281.49 326.439 311.482 315.696C341.474 304.953 342.338 271.496 339.021 256.111Z" fill="#FF8E3D"/>
<path d="M285.359 262.014C283.421 256.804 278.962 247.402 276.636 251.473C274.309 255.544 281.482 260.196 285.359 262.014Z" fill="#FD7411"/>
<path d="M295.531 259.307C293.757 254.039 291.301 243.927 295.672 245.625C300.042 247.323 297.399 255.454 295.531 259.307Z" fill="#FD7411"/>
<path d="M255.918 41.0159L272.275 85.7244C253.664 116.548 204.909 120.134 182.858 118.074L166.865 72.2755L255.918 41.0159Z" fill="#373500"/>
<path d="M272.275 85.7241C273.123 112.016 255.264 153.187 182.858 117.711L272.275 85.7241Z" fill="#373500"/>
<path d="M214.157 64.3276C238.836 55.8148 257.653 45.4652 256.186 41.2111C254.718 36.957 233.522 40.4094 208.843 48.9222C184.164 57.435 165.347 67.7846 166.814 72.0387C168.282 76.2928 189.478 72.8404 214.157 64.3276Z" fill="#373500"/>
<path d="M255.918 41.0159L272.275 85.7244C253.664 116.548 204.909 120.134 182.858 118.074L166.865 72.2755C166.865 72.2755 174.556 71.3111 179.223 69.7311C184.815 67.8379 192.672 62.8249 192.672 62.8249L231.201 94.0845V47.5586C231.201 47.5586 239.584 48.9458 244.65 47.5586C249.558 46.2146 255.918 41.0159 255.918 41.0159Z" fill="#4B4800"/>
<path d="M204.575 61.3971C204.854 61.4485 205.084 61.4771 205.3 61.5434C207.098 62.0396 208.42 62.9838 209.425 64.7334C209.85 65.4746 210.204 66.2814 210.583 67.0451C210.916 67.7222 211.245 68.3861 211.59 69.0577C211.681 69.2307 211.687 69.3209 211.512 69.437C211.132 69.6673 210.874 70.0406 210.872 70.5535C210.863 71.0082 211.058 71.3487 211.384 71.5636C211.715 71.7916 212.077 71.7718 212.43 71.6166C212.604 71.5325 212.69 71.3974 212.715 71.1682C212.928 69.4195 212.8 67.7113 212.378 66.0213C212.024 64.6245 211.438 63.34 210.904 62.0462C210.602 61.3071 210.319 60.5437 209.994 59.8158C209.795 59.3532 209.641 58.9001 209.574 58.3889C209.508 57.8777 209.537 57.3667 209.685 56.8447C210.119 57.0542 210.472 57.38 210.724 57.8015C210.955 58.2022 211.149 58.6516 211.322 59.0804C211.509 59.5486 211.639 60.045 211.798 60.5113C212.217 61.7522 212.625 62.9988 213.079 64.2229C213.848 66.2575 215.008 67.9473 216.574 69.2547C216.778 69.4355 216.965 69.4228 217.175 69.2898C217.712 68.9679 217.949 68.2789 217.73 67.6865C217.524 67.1337 216.91 66.8411 216.355 67.0785C216.153 67.1607 216.112 67.0874 216.067 66.8919C215.815 65.8805 215.546 64.8616 215.282 63.8558C214.993 62.7072 214.646 61.5866 214.659 60.3692C214.678 58.7609 215.107 57.4824 215.911 56.1464C215.972 56.0545 216.034 55.9626 216.121 55.8275C216.165 55.9459 216.194 56.0249 216.223 56.1039C218.113 61.1979 219.925 66.0812 221.815 71.1752C221.922 71.4648 221.922 71.4648 221.678 71.5826C220.762 72.0259 219.834 72.4747 218.918 72.918C218.756 72.9965 218.706 73.0829 218.739 73.284C218.99 74.8083 218.793 76.2696 218.107 77.6265C217.966 77.9117 217.869 78.2384 217.749 78.5444C216.974 78.1125 216.067 77.9921 215.328 77.4024C214.725 76.9182 214.176 76.3608 213.765 75.6591C213.667 75.5048 213.578 75.4858 213.439 75.5532C212.499 76.0076 211.571 76.4565 210.632 76.911C210.469 76.9895 210.385 76.9837 210.307 76.7731C208.407 71.6528 206.581 66.7299 204.681 61.6097C204.649 61.5945 204.629 61.5419 204.575 61.3971ZM206.465 63.2463C206.447 63.2707 206.412 63.2875 206.394 63.3119C206.428 63.4041 206.462 63.4962 206.496 63.5883C207.409 66.0498 208.249 68.3137 209.163 70.7752C209.314 71.1832 209.314 71.1832 209.685 71.0037C209.824 70.9363 209.879 70.8632 209.855 70.6884C209.814 70.1341 209.956 69.6308 210.25 69.2088C210.374 69.0249 210.353 68.8952 210.261 68.7222C209.82 67.8644 209.362 66.9991 208.956 66.1246C208.523 65.2161 208.074 64.5951 207.348 63.9679C207.059 63.7042 206.761 63.4912 206.465 63.2463ZM216.037 58.6625C216.014 58.6737 215.997 58.6661 215.974 58.6774C215.944 58.8163 215.913 58.9553 215.894 59.0886C215.735 60.0972 215.593 60.8954 215.824 61.8861C216.124 63.1381 216.448 64.3788 216.76 65.6252C216.795 65.7944 216.869 65.8828 217.042 65.9076C217.518 65.9726 217.928 66.1933 218.259 66.6074C218.412 66.7975 218.559 66.7884 218.836 66.5767C219.007 66.4475 218.879 66.3232 218.835 66.2047C217.907 63.7038 217.053 61.4003 216.12 58.8862C216.102 58.8016 216.073 58.7227 216.037 58.6625ZM212.668 72.7745C212.605 72.7894 212.53 72.8099 212.439 72.8229C211.64 72.9921 210.921 72.859 210.371 72.1156C210.292 72.014 210.227 71.9838 210.127 72.0474C210.046 72.0867 209.965 72.126 209.883 72.1652C209.767 72.2213 209.741 72.2964 209.789 72.4281C210.156 73.4153 210.527 74.4156 210.905 75.3972C210.924 75.4499 211.061 75.5235 211.107 75.501C211.739 75.2112 212.376 74.9026 212.998 74.5864C213.044 74.564 213.103 74.427 213.095 74.3687C212.956 73.8461 212.817 73.3235 212.668 72.7745ZM217.632 70.3731C217.874 70.8771 218.117 71.3493 218.354 71.8402C218.419 71.9793 218.512 71.9345 218.605 71.8896C219.196 71.6034 219.771 71.3097 220.368 71.0367C220.553 70.947 220.582 70.8399 220.497 70.6481C220.158 69.7718 219.843 68.8843 219.511 67.9892C219.359 67.5812 219.359 67.5812 219 67.7551C218.896 67.8056 218.803 67.8505 218.822 68.0121C218.901 68.8897 218.559 69.5522 217.992 70.0902C217.867 70.197 217.733 70.2775 217.632 70.3731ZM213.796 67.8507C213.847 69.0213 213.889 70.1656 213.732 71.3283C214.194 71.4308 214.628 71.5313 215.069 71.6131C215.13 71.6301 215.236 71.5477 215.279 71.4801C215.503 71.1237 215.693 70.7521 215.916 70.3956C215.985 70.2849 215.984 70.2078 215.882 70.1174C215.155 69.5221 214.542 68.7936 213.955 68.022C213.896 67.973 213.843 67.9053 213.796 67.8507ZM214.678 74.9847C214.885 75.6916 216.031 76.752 216.477 76.7379C216.484 76.7191 216.491 76.7004 216.491 76.7004C216.237 76.0159 215.995 75.3258 215.734 74.6601C215.714 74.6075 215.604 74.5678 215.553 74.5771C215.253 74.691 214.968 74.8445 214.678 74.9847ZM217.461 76.2929C217.838 75.7226 217.895 74.0336 217.619 73.5464C217.364 73.6698 217.085 73.8045 216.83 73.9279C216.679 74.0009 216.657 74.0891 216.716 74.2471C216.921 74.7999 217.126 75.3528 217.331 75.9056C217.364 76.0297 217.408 76.1481 217.461 76.2929ZM214.698 73.7485C214.849 73.6756 215.016 73.6102 215.157 73.5109C215.203 73.4885 215.257 73.3383 215.231 73.3044C214.946 72.7589 214.436 72.4158 213.9 72.5198C213.786 72.544 213.738 72.5984 213.759 72.7281C213.844 73.1059 213.941 73.4781 214.031 73.8691C214.069 74.0064 214.158 74.0254 214.262 73.9749C214.396 73.8944 214.547 73.8214 214.698 73.7485ZM216.832 72.7161C216.971 72.6488 217.099 72.587 217.238 72.5197C217.382 72.4655 217.439 72.3605 217.352 72.2006C217.195 71.8883 217.038 71.5761 216.87 71.2695C216.788 71.1227 216.704 71.1169 216.584 71.2369C216.197 71.5949 216.003 72.3253 216.182 72.8443C216.202 72.8969 216.317 72.9498 216.368 72.9405C216.535 72.8751 216.681 72.789 216.832 72.7161Z" fill="#FFD500"/>
<path d="M434.5 471C477.766 466.053 546.917 477.541 486.162 562.921C425.854 647.673 414.179 700.963 446.556 690.478C446.79 690.391 447.032 690.31 447.284 690.234C447.039 690.319 446.796 690.4 446.556 690.478C437.556 693.841 441.672 705.978 437.023 710.9C400.984 716.63 400.312 668.192 480.806 561.929C500.178 533.677 513.875 478.537 437.5 481.5L434.5 471Z" fill="#FFD500"/>
<path d="M429.5 455C478.388 443.833 530.059 437.389 475.722 538.571C421.942 638.716 478.99 631.224 515.255 614.581C515.599 614.403 515.972 614.23 516.376 614.061C516.005 614.235 515.631 614.409 515.255 614.581C506.326 619.194 517.142 626.522 512.743 632.437C472.315 643.493 407.042 640.124 469.377 538.205C486.515 504.821 516 449.5 433 462.5L429.5 455Z" fill="#005BBB"/>
</g>
</g>
</g>
<defs>
<radialGradient id="paint0_radial_79631_12" cx="0" cy="0" r="1" gradientUnits="userSpaceOnUse" gradientTransform="translate(205.227 272.041) rotate(49.619) scale(44.505 31.5961)">
<stop stop-color="#FFBBBB"/>
<stop offset="1" stop-color="#FFBBBB" stop-opacity="0"/>
</radialGradient>
<radialGradient id="paint1_radial_79631_12" cx="0" cy="0" r="1" gradientUnits="userSpaceOnUse" gradientTransform="translate(353.01 234.793) rotate(107.75) scale(44.505 31.5961)">
<stop stop-color="#FFBBBB"/>
<stop offset="1" stop-color="#FFBBBB" stop-opacity="0"/>
</radialGradient>
<clipPath id="clip0_79631_12">
<rect width="668" height="720" fill="white"/>
</clipPath>
</defs>
</svg>
